<svg width="55" height="48" viewBox="0 0 55 48" fill="none" xmlns="http://www.w3.org/2000/svg">
<path d="M27.806 47.2344C32.851 47.0209 38.0944 47.1411 42.2983 44.3439C46.5987 41.4825 48.8981 36.6655 50.8673 31.8901C52.994 26.7325 55.108 21.3491 54.0379 15.8738C52.8896 9.99883 50.1388 3.72871 44.8245 0.973159C39.6471 -1.71145 33.6307 1.97844 27.806 2.27201C22.4072 2.54412 16.4338 -0.449714 11.99 2.62809C7.53656 5.71247 8.00129 12.2738 6.06176 17.3319C3.97341 22.7781 -1.07112 27.6738 0.203622 33.3656C1.49385 39.1267 7.11935 42.9585 12.3946 45.609C17.1262 47.9864 22.5156 47.4582 27.806 47.2344Z" fill="#EE6C4D"/>
</svg>
