<svg width="32" height="32" viewBox="0 0 32 32" fill="none" xmlns="http://www.w3.org/2000/svg">
<path d="M7.13298 5.11111H30L26.8889 16H8.80822M28.4444 22.2222H9.77778L6.66667 2H2M11.3333 28.4444C11.3333 29.3036 10.6369 30 9.77778 30C8.91868 30 8.22222 29.3036 8.22222 28.4444C8.22222 27.5853 8.91868 26.8889 9.77778 26.8889C10.6369 26.8889 11.3333 27.5853 11.3333 28.4444ZM28.4444 28.4444C28.4444 29.3036 27.748 30 26.8889 30C26.0298 30 25.3333 29.3036 25.3333 28.4444C25.3333 27.5853 26.0298 26.8889 26.8889 26.8889C27.748 26.8889 28.4444 27.5853 28.4444 28.4444Z" stroke="#FAFEFC" stroke-width="3" stroke-linecap="round" stroke-linejoin="round"/>
</svg>
