<svg width="17" height="17" viewBox="0 0 17 17" fill="none" xmlns="http://www.w3.org/2000/svg">
<path d="M15.8073 14.9161L12.4274 11.5304C13.3389 10.4192 13.8834 8.9958 13.8834 7.44684C13.8834 3.88669 10.999 1 7.44168 1C3.88438 1 1 3.88669 1 7.44684C1 11.007 3.88438 13.8937 7.44168 13.8937C8.99551 13.8937 10.4209 13.3427 11.5343 12.4243L14.9142 15.8069C15.3087 16.1681 15.6788 15.9355 15.8073 15.8069C16.0642 15.5528 16.0642 15.1702 15.8073 14.9161ZM2.25714 7.44684C2.25714 4.58158 4.57871 2.25814 7.44168 2.25814C10.3046 2.25814 12.6293 4.58158 12.6293 7.44684C12.6293 10.3121 10.3077 12.6355 7.44474 12.6355C4.58177 12.6355 2.25714 10.3121 2.25714 7.44684Z" fill="white" stroke="white" stroke-width="1.63132"/>
</svg>
